# xmcd
#
# Track frame offsets:
#	150
#	15042
#	27355
#	36850
#	48615
#	60842
#	72700
#	86550
#	101992
#	115510
#	131355
#	139962
#	149647
#	158284
#	165307
#	179685
#	190995
#	202772
#	215465
#	227460
#	240902
#	250820
#	270000
#
# Disc length: 3766 seconds
#
# Revision: 0
# Processed by: cddbd v1.5.2PL0 Copyright (c) Steve Scherf et al.
# Submitted via: EZCDAudioConverter 8.3.2.1
#
DISCID=2c0eb417
DTITLE=Η Δήμητρα Γαλάνη στο Χάραμα 1996-2
DYEAR=2012
DGENRE=Ποικίλη
TTITLE0=Γαλάνη Δήμητρα - Η νύχτα [Στ. Ξαρχάκος-Ν. Γκάτσος]
TTITLE1=Γαλάνη Δήμητρα - Τι σήμερα, τι αύριο, τι τώρα [Β. Τσιτσάνης-Γερ. Τσάκα
TTITLE1=λος]
TTITLE2=Γαλάνη Δήμητρα - Μη μού χτυπάς μεσάνυχτα την πόρτα [Δ. Μούτσης-Ν. Γκάτ
TTITLE2=σος]
TTITLE3=Γαλάνη Δήμητρα - Το κόκκινο φεγγάρι [Π. Καλαντζόπουλος-Ελ. Ζιώγα]
TTITLE4=Ανδρεάτος Γεράσιμος - Ο γκρεμός [Μ. Χατζιδάκις-Λ. Στρογγυλός]
TTITLE5=Γαλάνη Δήμητρα - Εσένα δεν σού άξιζε αγάπη [Γ. Καραμπεσίνης]
TTITLE6=Γαλάνη Δήμητρα - Έρωτά μου αγιάτρευτε [Τ. Σούκας-Ηρ. Παπασιδέρης]
TTITLE7=Γαλάνη Δήμητρα - Πες πως μ' αντάμωσες [Γ. Σπανός-Λ. Παπαδόπουλος]
TTITLE8=Γαλάνη Δήμητρα - Δεν είσαι εδώ [Στ. Κορκολής-Παρ. Καρασούλος]
TTITLE9=Πασπαλά Έλλη - Να βρω τα μεταξωτά [Σωκ. Μάλαμας-Γ. Τσατσόπουλος]
TTITLE10=Γαλάνη Δήμητρα - Καίγομαι, καίγομαι [Στ. Ξαρχάκος-Ν. Γκάτσος]
TTITLE11=Γαλάνη Δήμητρα - Θάλασσα πλατιά [Μ. Χατζιδάκις-Γ. Ρούσσος]
TTITLE12=Γαλάνη Δήμητρα - Εφτά τραγούδια θα σού πω [Μ. Χατζιδάκις-Μιχ. Κακογιά
TTITLE12=ννης]
TTITLE13=Γαλάνη Δήμητρα - Χασάπικο 40 [Μ. Χατζιδάκις-Ν. Γκάτσος]
TTITLE14=Γαλάνη Δήμητρα - Πήρες το μεγάλο δρόμο [Δ. Μούτσης-Ν. Γκάτσος]
TTITLE15=Γαλάνη Δήμητρα - Τα τραίνα που φύγαν [Σ.Ξαρχάκος-Β.Γκούφας/Β.Ανδρεόπο
TTITLE15=υλος]
TTITLE16=Γαλάνη Δήμητρα - Πήρα απ' το χέρι σου νερό [Άκης Πάνου]
TTITLE17=Γαλάνη Δήμητρα - Δεν ξέρω πόσο σ' αγαπώ [Απ. Καλδάρας-Χρ. Αργυρόπουλο
TTITLE17=ς]
TTITLE18=Γαλάνη Δήμητρα - Μάτια βουρκωμένα [Στ. Ξαρχάκος-Ν. Γκάτσος]
TTITLE19=Πλακιάς Φίλιππος - Με παρέσυρε το ρέμα [Βασ. Τσιτσάνης]
TTITLE20=Γαλάνη Δήμητρα - Απόψε στις ακρογιαλιές [Βασ. Τσιτσάνης]
TTITLE21=Γαλάνη Δήμητρα - Πριν το χάραμα μονάχος [Γ. Παπαϊωάννου-Χαρ. Βασιλειά
TTITLE21=δης]
TTITLE22=Γαλάνη Δήμητρα - Τ' αστέρι του βοριά [Μ. Χατζιδάκις-Ν. Γκάτσος]
EXTD=
EXTT0=
EXTT1=
EXTT2=
EXTT3=
EXTT4=
EXTT5=
EXTT6=
EXTT7=
EXTT8=
EXTT9=
EXTT10=
EXTT11=
EXTT12=
EXTT13=
EXTT14=
EXTT15=
EXTT16=
EXTT17=
EXTT18=
EXTT19=
EXTT20=
EXTT21=
EXTT22=
PLAYORDER=
